# AST/ASF file generated using VICON BodyLanguage
# -----------------------------------------------
:version 1.10
:name VICON
:units
  mass 1.0
  length 0.45
  angle deg
:documentation
   .ast/.asf automatically generated from VICON data using
   VICON BodyBuilder and BodyLanguage model FoxedUp or BRILLIANT.MOD
:root
   order TX TY TZ RX RY RZ
   axis XYZ
   position 0 0 0  
   orientation 0 0 0 
:bonedata
  begin
     id 1 
     name lhipjoint
     direction 0.643824 -0.71708 0.266994 
     length 2.52133 
     axis 0 0 0  XYZ
  end
  begin
     id 2 
     name lfemur
     direction 0.34202 -0.939693 0  
     length 7.51824  
     axis 0 0 20  XYZ
    dof rx ry rz
    limits (-160.0 20.0)
           (-70.0 70.0)
           (-60.0 70.0)
  end
  begin
     id 3 
     name ltibia
     direction 0.34202 -0.939693 0   
     length 7.3685   
     axis 0 0 20   XYZ
    dof rx
    limits (-10.0 170.0)
  end
  begin
     id 4 
     name lfoot
     direction 0.105419 -0.289636 0.951314   
     length 2.20972   
     axis -90 7.62852e-016 20   XYZ
    dof rx rz
    limits (-45.0 90.0)
           (-70.0 20.0)
  end
  begin
     id 5 
     name ltoes
     direction 1.53549e-011 -4.21833e-011 1   
     length 1.10139   
     axis -90 7.62852e-016 20   XYZ
    dof rx
    limits (-90.0 20.0)
  end
  begin
     id 6 
     name rhipjoint
     direction -0.608823 -0.743445 0.276811   
     length 2.43192  
     axis 0 0 0  XYZ 
  end
  begin
     id 7 
     name rfemur
     direction -0.34202 -0.939693 0   
     length 7.69715   
     axis 0 0 -20   XYZ
    dof rx ry rz
    limits (-160.0 20.0)
           (-70.0 70.0)
           (-70.0 60.0)
  end
  begin
     id 8 
     name rtibia
     direction -0.34202 -0.939693 0   
     length 7.44924   
     axis 0 0 -20   XYZ
    dof rx
    limits (-10.0 170.0)
 end
 begin
     id 9 
     name rfoot
     direction -0.103614 -0.284677 0.953007   
     length 2.22623  
     axis -90 -7.62852e-016 -20   XYZ
    dof rx rz
    limits (-45.0 90.0)
           (-20.0 70.0)
  end
  begin
     id 10 
     name rtoes
     direction -1.53537e-011 -4.22026e-011 1   
     length 1.11   
     axis -90 -7.62852e-016 -20   XYZ
    dof rx
    limits (-90.0 20.0)
  end
  begin
     id 11 
     name lowerback
     direction -0.0101212 0.99662 -0.0815298   
     length 2.08277   
     axis 0 0 0   XYZ
    dof rx ry rz
    limits (-20.0 45.0)
           (-30.0 30.0)
           (-30.0 30.0)
  end
  begin
     id 12 
     name upperback
     direction 0.024314 0.999591 -0.0150645   
     length 2.08524   
     axis 0 0 0   XYZ
    dof rx ry rz
    limits (-20.0 45.0)
           (-30.0 30.0)
           (-30.0 30.0)
  end
  begin
     id 13 
     name thorax
     direction 0.0285959 0.999323 0.0231357   
     length 2.09645   
     axis 0 0 0   XYZ
    dof rx ry rz
    limits (-20.0 45.0)
           (-30.0 30.0)
           (-30.0 30.0)
  end
  begin
     id 14 
     name lowerneck
     direction -0.065512 0.979301 0.191515   
     length 1.63798   
     axis 0 0 0   XYZ
    dof rx ry rz
    limits (-20.0 45.0)
           (-30.0 30.0)
           (-30.0 30.0)
  end
  begin
     id 15 
     name upperneck
     direction 0.0498479 0.98191 -0.182667   
     length 1.68731   
     axis 0 0 0   XYZ
    dof rx ry rz
    limits (-20.0 45.0)
           (-30.0 30.0)
           (-30.0 30.0)
  end
  begin
     id 16
     name head
     direction 0.0230358 0.996257 -0.0833175  
     length 1.69785  
     axis 0 0 0   XYZ
    dof rx ry rz
    limits (-20.0 45.0)
           (-30.0 30.0)
           (-30.0 30.0)
  end
  begin
     id 17 
     name lclavicle
     direction 0.967963 0.201165 -0.150269  
     length 3.63976  
     axis 0 0 0   XYZ
    dof ry rz
    limits (-20.0 10.0)
           (0.0 20.0)
  end
  begin
     id 18 
     name lhumerus
     direction 1 -4.48954e-011 -2.92837e-028   
     length 5.32462   
     axis 180 -30 -90   XYZ
    dof rx ry rz
    limits (-60.0 90.0)
           (-90.0 90.0)
           (-90.0 90.0)
  end
  begin
     id 19
     name lradius
     direction 1 -4.48958e-011 -6.39511e-027   
     length 3.48402   
     axis 180 -30 -90   XYZ
    dof rx
    limits (-10.0 170.0)
  end
  begin
     id 20
     name lwrist
     direction 1 -4.48975e-011 -1.1413e-026   
     length 1.74201   
     axis 6.88575e-015 90 90   XYZ
    dof ry
    limits (-180.0 0.0)
 end
  begin
     id 21 
     name lhand
     direction 1 -4.48899e-011 -2.28192e-026   
     length 0.572476   
     axis 1.45643e-014 90 90   XYZ
    dof rx rz
    limits (-90.0 90.0)
           (-45.0 45.0)
  end
  begin
     id 22 
     name lfingers
     direction 1 -4.49155e-011 -4.5684e-026   
     length 0.461545   
     axis 2.91283e-014 90 90   XYZ
    dof rx
    limits (0.0 90.0)
  end
  begin
     id 23
     name lthumb
     direction 0.707107 -6.34943e-011 0.707107   
     length 0.662688   
     axis -90 45 -2.25915e-014   XYZ
    dof rx rz
    limits (-45.0 45.0)
           (-45.0 45.0)
  end
  begin
     id 24 
     name rclavicle
     direction -0.964103 0.264019 -0.0282629   
     length 3.54491  
     axis 0 0 0   XYZ 
    dof ry rz
    limits (-10.0 20.0)
           (-20.0 0.0)
  end
  begin
     id 25 
     name rhumerus
     direction -1 -4.48964e-011 -2.45032e-027  
     length 5.33589   
     axis 180 30 90   XYZ
    dof rx ry rz
    limits (-90.0 60.0)
           (-90.0 90.0)
           (-90.0 90.0)
  end
  begin
     id 26 
     name rradius
     direction -1 -4.48987e-011 -1.55093e-027   
     length 3.64134   
     axis 180 30 90   XYZ
    dof rx
    limits (-10.0 170.0)
  end
  begin
     id 27 
     name rwrist
     direction -1 -4.4897e-011 -1.14128e-026   
     length 1.82067   
     axis 6.88575e-015 -90 -90   XYZ
    dof ry
    limits (-180.0 0.0)
  end
  begin
     id 28
     name rhand
     direction -1 -4.49021e-011 -2.28301e-026   
     length 0.734811   
     axis 1.45643e-014 -90 -90   XYZ
    dof rx rz
    limits (-90.0 90.0)
           (-45.0 45.0)
  end
  begin
     id 29
     name rfingers
     direction -1 -4.48862e-011 -4.56319e-026   
     length 0.592424   
     axis 2.91283e-014 -90 -90   XYZ
    dof rx
    limits (0.0 90.0)
  end
  begin
     id 30
     name rthumb
     direction -0.707107 -6.34978e-011 0.707107   
     length 0.850605   
     axis -90 -45 2.25915e-014   XYZ
    dof rx rz
    limits (-45.0 45.0)
           (-45.0 45.0)
  end
:hierarchy
  begin
    root lhipjoint rhipjoint lowerback
    lhipjoint lfemur
    lfemur ltibia
    ltibia lfoot
    lfoot ltoes
    rhipjoint rfemur
    rfemur rtibia
    rtibia rfoot
    rfoot rtoes
    lowerback upperback
    upperback thorax
    thorax lowerneck lclavicle rclavicle
    lowerneck upperneck
    upperneck head
    lclavicle lhumerus
    lhumerus lradius
    lradius lwrist
    lwrist lhand lthumb
    lhand lfingers
    rclavicle rhumerus
    rhumerus rradius
    rradius rwrist
    rwrist rhand rthumb
    rhand rfingers
  end

#!OML:ASF F:\VICON\USERDATA\INSTALL\rory3\rory3.ASF
:FULLY-SPECIFIED
:DEGREES
81
root -9.28673 17.6972 -1.56298 10.7644 36.2228 3.21037
lowerback 5.2093 -1.87395 1.43449
upperback 2.98166 -2.34347 5.51598
thorax 0.331585 -1.17413 5.01285
lowerneck -12.662 5.67446 -7.86783
upperneck 42.4814 12.9194 -1.35505
head 17.4971 4.12439 3.11712
rclavicle 1.59028e-015 2.38542e-014
rhumerus -32.5387 -5.73903 -73.6166
rradius 40.0247
rwrist 15.3848
rhand -25.8444 4.19297
rfingers 7.12502
rthumb 0.69604 -25.7856
lclavicle 1.59028e-015 2.38542e-014
lhumerus -29.5599 2.35985 87.7016
lradius 34.6668
lwrist -4.95515
lhand -9.43253 25.6044
lfingers 7.12502
lthumb 16.53 54.9203
rfemur -31.1128 -5.5847 23.0305
rtibia 38.499
rfoot -16.7764 -8.36854
rtoes 17.8768
lfemur -17.8039 8.94417 -26.2378
ltibia 54.9038
lfoot -3.28097 -5.61396
ltoes -26.429
82
root -9.23027 17.7017 -1.51702 10.7382 35.7463 3.31596
lowerback 5.32775 -1.86186 1.39461
upperback 2.98385 -2.32363 5.53852
thorax 0.269049 -1.16468 5.06283
lowerneck -12.4845 5.7783 -7.81205
upperneck 42.5658 13.0622 -1.39192
head 17.5045 4.18733 3.1077
rclavicle 5.56597e-015 0
rhumerus -32.3627 -5.00128 -73.7355
rradius 40.0256
rwrist 15.3685
rhand -25.9933 4.0633
rfingers 7.12502
rthumb 0.552247 -25.9157
lclavicle 5.56597e-015 0
lhumerus -29.6654 2.03011 87.6191
lradius 35.4127
lwrist -4.45814
lhand -9.75126 25.8321
lfingers 7.12502
lthumb 16.2232 55.1733
rfemur -30.7772 -5.49451 22.8307
rtibia 38.4567
rfoot -16.7801 -8.09514
rtoes 17.2612
lfemur -18.5939 9.22194 -26.2114
ltibia 56.0554
lfoot -3.8362 -5.38163
ltoes -26.9764
83
root -9.17528 17.7066 -1.46911 10.5158 35.2225 3.17506
lowerback 5.46885 -1.80084 1.53661
upperback 3.05662 -2.23146 5.57194
thorax 0.254462 -1.11692 5.01711
lowerneck -12.2942 5.88944 -7.80597
upperneck 42.5537 13.1443 -1.28198
head 17.4279 4.24584 3.154
rclavicle 2.62396e-014 -3.81667e-014
rhumerus -32.1789 -4.5295 -73.8438
rradius 40.1437
rwrist 15.3668
rhand -23.2161 4.3493
rfingers 7.12502
rthumb 3.23437 -25.6059
lclavicle 2.62396e-014 -3.81667e-014
lhumerus -29.61 1.77498 87.4924
lradius 36.0672
lwrist -4.23449
lhand -9.78677 25.7401
lfingers 7.12502
lthumb 16.189 55.0841
rfemur -30.3688 -5.2565 22.8318
rtibia 38.4067
rfoot -16.8381 -7.88428
rtoes 16.6296
lfemur -19.3189 9.69603 -25.9302
ltibia 57.1064
lfoot -4.25239 -5.62861
ltoes -26.9014
84
root -9.11967 17.7124 -1.42137 10.3683 34.759 3.11339
lowerback 5.55449 -1.73874 1.66283
upperback 3.12073 -2.14162 5.56425
thorax 0.261151 -1.07045 4.935
lowerneck -12.2225 5.94747 -7.74434
upperneck 42.6526 13.169 -1.17747
head 17.4548 4.2753 3.1934
rclavicle 4.05521e-014 2.70347e-014
rhumerus -32.0155 -4.38531 -73.8687
rradius 40.3011
rwrist 16.0378
rhand -23.3422 3.78792
rfingers 7.12502
rthumb 3.1126 -26.1691
lclavicle 4.05521e-014 2.70347e-014
lhumerus -29.526 1.41199 87.3559
lradius 36.7027
lwrist -3.80286
lhand -9.88755 25.6846
lfingers 7.12502
lthumb 16.0919 55.0365
rfemur -29.9645 -5.03461 22.7663
rtibia 38.3387
rfoot -16.8987 -7.75628
rtoes 14.9804
lfemur -20.082 10.1565 -25.7274
ltibia 58.0581
lfoot -4.61824 -5.9169
ltoes -26.4009
85
root -9.06269 17.7159 -1.37963 10.3289 34.3161 3.13729
lowerback 5.61844 -1.66649 1.77659
upperback 3.16572 -2.03945 5.53307
thorax 0.259171 -1.01772 4.83401
lowerneck -12.255 5.95636 -7.79671
upperneck 42.761 13.14 -1.00785
head 17.4988 4.26947 3.27847
rclavicle 1.74931e-014 1.90833e-014
rhumerus -31.888 -4.20456 -73.875
rradius 40.4955
rwrist 16.4603
rhand -23.425 4.04892
rfingers 7.12502
rthumb 3.0327 -25.9093
lclavicle 1.74931e-014 1.90833e-014
lhumerus -29.4386 1.00032 87.2422
lradius 37.4143
lwrist -3.3489
lhand -9.98274 25.681
lfingers 7.12502
lthumb 16.0003 55.0402
rfemur -29.6474 -4.93493 22.6569
rtibia 38.2461
rfoot -16.9011 -7.56904
rtoes 14.6153
lfemur -20.9265 10.4261 -25.6304
ltibia 58.9142
lfoot -4.88452 -5.96771
ltoes -25.8346
86
root -9.00863 17.7255 -1.33435 10.2294 33.7903 3.07549
lowerback 5.6623 -1.60158 1.82396
upperback 3.25309 -1.95252 5.57783
thorax 0.319134 -0.974542 4.85001
lowerneck -12.2412 5.99487 -7.91568
upperneck 42.7946 13.1969 -0.932378
head 17.4928 4.28222 3.33966
rclavicle 1.31993e-013 -6.36111e-014
rhumerus -31.679 -3.9984 -73.8513
rradius 40.6929
rwrist 16.6976
rhand -23.4515 4.28468
rfingers 7.12502
rthumb 3.00707 -25.6739
lclavicle 1.31993e-013 -6.36111e-014
lhumerus -29.2818 0.893317 87.1065
lradius 38.115
lwrist -3.16263
lhand -9.9017 26.0095
lfingers 7.12502
lthumb 16.0783 55.3625
rfemur -29.317 -4.6033 22.584
rtibia 38.1725
rfoot -16.8793 -7.39899
rtoes 14.7825
lfemur -21.7864 10.9454 -25.4575
ltibia 59.6531
lfoot -5.18968 -5.98942
ltoes -26.7341
87
root -8.95312 17.7333 -1.28834 10.1105 33.3114 3.0812
lowerback 5.77875 -1.61809 1.78
upperback 3.3201 -1.97327 5.63558
thorax 0.329109 -0.986487 4.93978
lowerneck -12.2693 6.09146 -8.00676
upperneck 42.9134 13.3843 -0.923433
head 17.5544 4.33447 3.39532
rclavicle -5.88403e-014 -1.59028e-014
rhumerus -31.46 -3.67416 -73.8497
rradius 40.8546
rwrist 16.9678
rhand -23.3401 4.51823
rfingers 7.12502
rthumb 3.11462 -25.4388
lclavicle -5.88403e-014 -1.59028e-014
lhumerus -29.1124 1.23978 86.9372
lradius 38.6235
lwrist -3.15781
lhand -9.92818 26.1191
lfingers 7.12502
lthumb 16.0528 55.4741
rfemur -28.937 -4.25144 22.4231
rtibia 38.1488
rfoot -16.7162 -7.1961
rtoes 14.4165
lfemur -22.543 11.3304 -25.3092
ltibia 60.2804
lfoot -5.45375 -5.84608
ltoes -27.1431
